<svg width="97" height="28" viewBox="0 0 97 28" fill="none" xmlns="http://www.w3.org/2000/svg">
<g clip-path="url(#clip0_356_2776)">
<rect width="27.792" height="27.792" rx="6" fill="#0B68F7"/>
<path d="M13.6748 6.34888L13.6758 6.34985L13.6777 6.34888L13.6768 6.34985C13.885 6.35307 14.0869 6.42208 14.252 6.54907C14.4174 6.67636 14.5374 6.85396 14.5938 7.05493L17.4717 17.2903L18.8877 13.5168C18.9568 13.3325 19.0804 13.173 19.2422 13.0608C19.4039 12.9487 19.5962 12.8891 19.793 12.8889H42.1826C42.4391 12.889 42.6848 12.9908 42.8662 13.1721C43.0477 13.3536 43.1504 13.6001 43.1504 13.8567C43.1503 14.1132 43.0476 14.3589 42.8662 14.5403C42.6848 14.7216 42.4391 14.8234 42.1826 14.8235H20.4639L18.2461 20.7366C18.1745 20.9273 18.0448 21.0908 17.875 21.2034C17.705 21.316 17.5035 21.3721 17.2998 21.3635C17.0961 21.3549 16.9002 21.282 16.7402 21.1555C16.5803 21.029 16.4644 20.8548 16.4092 20.6584L13.6123 10.7151L12.541 14.1448C12.4796 14.3415 12.3564 14.5138 12.1904 14.636C12.0245 14.7579 11.824 14.8233 11.6182 14.8235H-9.18262C-9.43911 14.8234 -9.68481 14.7216 -9.86621 14.5403C-10.0476 14.3589 -10.1503 14.1132 -10.1504 13.8567C-10.1504 13.6001 -10.0477 13.3536 -9.86621 13.1721C-9.68482 12.9908 -9.43907 12.889 -9.18262 12.8889H10.9072L12.7383 7.02759L12.7959 6.88306C12.8653 6.74426 12.9677 6.6233 13.0947 6.53149C13.2626 6.41022 13.4649 6.34762 13.6719 6.34985L13.6729 6.34888H13.6748Z" fill="white" stroke="white" stroke-width="0.3"/>
</g>
<path d="M36.3139 22.05C35.8739 22.05 35.5366 21.918 35.3019 21.654C35.0672 21.39 34.9499 21.0233 34.9499 20.554V12.48C34.9499 11.996 35.0672 11.6293 35.3019 11.38C35.5366 11.116 35.8739 10.984 36.3139 10.984C36.7539 10.984 37.0912 11.116 37.3259 11.38C37.5752 11.6293 37.6999 11.996 37.6999 12.48V20.554C37.6999 21.0233 37.5826 21.39 37.3479 21.654C37.1132 21.918 36.7686 22.05 36.3139 22.05ZM36.3139 8.938C35.8006 8.938 35.3972 8.81333 35.1039 8.564C34.8252 8.3 34.6859 7.94066 34.6859 7.486C34.6859 7.01666 34.8252 6.65733 35.1039 6.40799C35.3972 6.15866 35.8006 6.034 36.3139 6.034C36.8419 6.034 37.2452 6.15866 37.5239 6.40799C37.8026 6.65733 37.9419 7.01666 37.9419 7.486C37.9419 7.94066 37.8026 8.3 37.5239 8.564C37.2452 8.81333 36.8419 8.938 36.3139 8.938ZM48.0373 22.116C46.424 22.116 45.038 21.7933 43.8793 21.148C42.7353 20.488 41.8553 19.564 41.2393 18.376C40.6233 17.1733 40.3153 15.758 40.3153 14.13C40.3153 12.9127 40.4913 11.82 40.8433 10.852C41.1953 9.86933 41.7013 9.03333 42.3613 8.34399C43.0213 7.64 43.828 7.10466 44.7813 6.738C45.7493 6.35666 46.8347 6.166 48.0373 6.166C48.844 6.166 49.636 6.26866 50.4133 6.474C51.1907 6.67933 51.8727 6.97266 52.4593 7.354C52.7673 7.54466 52.9727 7.77933 53.0753 8.058C53.178 8.322 53.2 8.586 53.1413 8.84999C53.0827 9.09933 52.958 9.312 52.7673 9.488C52.5913 9.664 52.364 9.76666 52.0853 9.796C51.8213 9.81066 51.528 9.71533 51.2053 9.51C50.7507 9.21666 50.2593 9.004 49.7313 8.872C49.2033 8.74 48.668 8.674 48.1253 8.674C47.084 8.674 46.204 8.88666 45.4853 9.312C44.7667 9.73733 44.224 10.3533 43.8573 11.16C43.4907 11.9667 43.3073 12.9567 43.3073 14.13C43.3073 15.2887 43.4907 16.2787 43.8573 17.1C44.224 17.9213 44.7667 18.5447 45.4853 18.97C46.204 19.3953 47.084 19.608 48.1253 19.608C48.6827 19.608 49.2327 19.542 49.7753 19.41C50.318 19.2633 50.8313 19.0433 51.3153 18.75C51.638 18.5593 51.924 18.4787 52.1733 18.508C52.4373 18.5227 52.6573 18.6107 52.8333 18.772C53.0093 18.9333 53.1267 19.1387 53.1853 19.388C53.244 19.6227 53.2293 19.872 53.1413 20.136C53.0533 20.3853 52.8773 20.6053 52.6133 20.796C52.0267 21.2213 51.3227 21.5513 50.5013 21.786C49.6947 22.006 48.8733 22.116 48.0373 22.116ZM59.1844 22.116C57.9671 22.116 57.0504 21.7713 56.4344 21.082C55.8184 20.378 55.5104 19.3513 55.5104 18.002V7.596C55.5104 7.14133 55.6278 6.79666 55.8624 6.562C56.0971 6.32733 56.4344 6.20999 56.8744 6.20999C57.3144 6.20999 57.6518 6.32733 57.8864 6.562C58.1358 6.79666 58.2604 7.14133 58.2604 7.596V17.87C58.2604 18.5447 58.3998 19.0433 58.6784 19.366C58.9718 19.6887 59.3824 19.85 59.9104 19.85C60.0278 19.85 60.1378 19.85 60.2404 19.85C60.3431 19.8353 60.4458 19.8207 60.5484 19.806C60.7538 19.7767 60.8931 19.8353 60.9664 19.982C61.0398 20.114 61.0764 20.3927 61.0764 20.818C61.0764 21.1847 61.0031 21.4707 60.8564 21.676C60.7098 21.8813 60.4678 22.006 60.1304 22.05C59.9838 22.0647 59.8298 22.0793 59.6684 22.094C59.5071 22.1087 59.3458 22.116 59.1844 22.116ZM63.8998 22.05C63.4598 22.05 63.1225 21.918 62.8878 21.654C62.6532 21.39 62.5358 21.0233 62.5358 20.554V12.48C62.5358 11.996 62.6532 11.6293 62.8878 11.38C63.1225 11.116 63.4598 10.984 63.8998 10.984C64.3398 10.984 64.6772 11.116 64.9118 11.38C65.1612 11.6293 65.2858 11.996 65.2858 12.48V20.554C65.2858 21.0233 65.1685 21.39 64.9338 21.654C64.6992 21.918 64.3545 22.05 63.8998 22.05ZM63.8998 8.938C63.3865 8.938 62.9832 8.81333 62.6898 8.564C62.4112 8.3 62.2718 7.94066 62.2718 7.486C62.2718 7.01666 62.4112 6.65733 62.6898 6.40799C62.9832 6.15866 63.3865 6.034 63.8998 6.034C64.4278 6.034 64.8312 6.15866 65.1098 6.40799C65.3885 6.65733 65.5278 7.01666 65.5278 7.486C65.5278 7.94066 65.3885 8.3 65.1098 8.564C64.8312 8.81333 64.4278 8.938 63.8998 8.938ZM69.5073 22.072C69.0673 22.072 68.7299 21.9547 68.4953 21.72C68.2606 21.4707 68.1433 21.1187 68.1433 20.664V12.348C68.1433 11.8933 68.2606 11.5487 68.4953 11.314C68.7299 11.0793 69.0599 10.962 69.4853 10.962C69.9106 10.962 70.2406 11.0793 70.4753 11.314C70.7099 11.5487 70.8273 11.8933 70.8273 12.348V13.844L70.5853 13.294C70.9079 12.5167 71.4066 11.93 72.0813 11.534C72.7706 11.1233 73.5479 10.918 74.4133 10.918C75.2786 10.918 75.9899 11.0793 76.5473 11.402C77.1046 11.7247 77.5226 12.216 77.8013 12.876C78.0799 13.5213 78.2193 14.3427 78.2193 15.34V20.664C78.2193 21.1187 78.1019 21.4707 77.8673 21.72C77.6326 21.9547 77.2953 22.072 76.8553 22.072C76.4153 22.072 76.0706 21.9547 75.8213 21.72C75.5866 21.4707 75.4693 21.1187 75.4693 20.664V15.472C75.4693 14.636 75.3079 14.0273 74.9853 13.646C74.6773 13.2647 74.1933 13.074 73.5333 13.074C72.7266 13.074 72.0813 13.3307 71.5973 13.844C71.1279 14.3427 70.8933 15.01 70.8933 15.846V20.664C70.8933 21.6027 70.4313 22.072 69.5073 22.072ZM82.3764 22.05C81.9364 22.05 81.5991 21.918 81.3644 21.654C81.1297 21.39 81.0124 21.0233 81.0124 20.554V12.48C81.0124 11.996 81.1297 11.6293 81.3644 11.38C81.5991 11.116 81.9364 10.984 82.3764 10.984C82.8164 10.984 83.1537 11.116 83.3884 11.38C83.6377 11.6293 83.7624 11.996 83.7624 12.48V20.554C83.7624 21.0233 83.6451 21.39 83.4104 21.654C83.1757 21.918 82.8311 22.05 82.3764 22.05ZM82.3764 8.938C81.8631 8.938 81.4597 8.81333 81.1664 8.564C80.8877 8.3 80.7484 7.94066 80.7484 7.486C80.7484 7.01666 80.8877 6.65733 81.1664 6.40799C81.4597 6.15866 81.8631 6.034 82.3764 6.034C82.9044 6.034 83.3077 6.15866 83.5864 6.40799C83.8651 6.65733 84.0044 7.01666 84.0044 7.486C84.0044 7.94066 83.8651 8.3 83.5864 8.564C83.3077 8.81333 82.9044 8.938 82.3764 8.938ZM91.5918 22.116C90.4625 22.116 89.4798 21.8887 88.6438 21.434C87.8078 20.9647 87.1625 20.3047 86.7078 19.454C86.2532 18.6033 86.0258 17.606 86.0258 16.462C86.0258 15.5967 86.1505 14.8267 86.3998 14.152C86.6638 13.4627 87.0378 12.8833 87.5218 12.414C88.0058 11.93 88.5925 11.5633 89.2818 11.314C89.9712 11.05 90.7412 10.918 91.5918 10.918C92.0758 10.918 92.5965 10.984 93.1538 11.116C93.7258 11.248 94.2612 11.468 94.7598 11.776C94.9945 11.9227 95.1485 12.0987 95.2218 12.304C95.2952 12.5093 95.3098 12.722 95.2658 12.942C95.2218 13.1473 95.1265 13.3307 94.9798 13.492C94.8478 13.6387 94.6792 13.734 94.4738 13.778C94.2685 13.8073 94.0412 13.756 93.7918 13.624C93.4692 13.4333 93.1392 13.294 92.8018 13.206C92.4645 13.1033 92.1418 13.052 91.8338 13.052C91.3498 13.052 90.9245 13.1327 90.5578 13.294C90.1912 13.4407 89.8758 13.6607 89.6118 13.954C89.3625 14.2327 89.1718 14.5847 89.0398 15.01C88.9078 15.4353 88.8418 15.9267 88.8418 16.484C88.8418 17.5693 89.0985 18.4273 89.6118 19.058C90.1398 19.674 90.8805 19.982 91.8338 19.982C92.1418 19.982 92.4572 19.938 92.7798 19.85C93.1172 19.762 93.4545 19.6227 93.7918 19.432C94.0412 19.3 94.2612 19.256 94.4518 19.3C94.6572 19.344 94.8258 19.4467 94.9578 19.608C95.0898 19.7547 95.1705 19.938 95.1998 20.158C95.2292 20.3633 95.1998 20.5687 95.1118 20.774C95.0385 20.9793 94.8918 21.148 94.6718 21.28C94.1878 21.5733 93.6745 21.786 93.1318 21.918C92.5892 22.05 92.0758 22.116 91.5918 22.116Z" fill="#0E0A2F"/>
<defs>
<clipPath id="clip0_356_2776">
<rect width="27.792" height="27.792" rx="6" fill="white"/>
</clipPath>
</defs>
</svg>
